<?xml version="1.0" encoding="utf-8"?>
<!-- Generator: Adobe Illustrator 21.1.0, SVG Export Plug-In . SVG Version: 6.00 Build 0)  -->
<svg version="1.1" id="Layer_1" xmlns="http://www.w3.org/2000/svg" xmlns:xlink="http://www.w3.org/1999/xlink" x="0px" y="0px"
	 viewBox="0 0 64 64" style="enable-background:new 0 0 64 64;" xml:space="preserve">
<style type="text/css">
	.st0{fill:#DA1C5C;}
</style>
<g>
	<path class="st0" d="M29.8,11.5c0.3,0.1,0.7,0.1,1,0.1c0.1,0,0.2,0,0.3,0c0,0,0,0,0,0c0,0,0,0,0-0.1c0-0.1-0.1-0.3-0.1-0.4
		C30.9,11,30.7,11,30.6,11c-1.2-0.3-3.5,0.2-3.6,0.1c0,0-0.1,0-0.2,0c-0.1,0-0.1,0-0.2,0c-0.1,0-0.1,0-0.2,0c-0.3,0-0.4,0-0.5,0.1
		C25.9,11.3,29.1,11.3,29.8,11.5z"/>
	<path class="st0" d="M26.7,16.7c0.1,0.1,0.3,0.2,0.4,0.3c0.3,0.2,0.6,0.3,0.8,0.2c0.2-0.1,0.4-0.4,0.4-0.8c0-0.2,0-0.5,0.1-0.7
		c0-0.2,0-0.5,0.1-0.7c0.1-0.8,0.4-1.3,0.8-1.7c0,0,0.1,0,0.2,0c0.1,0,0.1,0.1,0.1,0.1c0,0.2-0.1,0.4-0.1,0.6
		c-0.1,0.4-0.2,0.9-0.2,1.4c0,0.5,0.2,0.9,0.5,1c0.3,0.2,0.7,0.1,1.2-0.3c0.1-0.1,0.3-0.2,0.3-0.4c0-0.1-0.1-0.2-0.2-0.3
		c-0.2-0.1-0.4-0.2-0.5-0.3c-0.1-0.1-0.2-0.1-0.3-0.2c0,0-0.1-0.1-0.1-0.1c0,0,0-0.1,0-0.1l0.2-0.2c0,0,0.1,0,0.1,0
		c0.1,0,0.3,0,0.4,0c0.3,0,0.6,0.1,0.9,0c0.2,0,0.5,0,0.7-0.1c0.2,0,0.5-0.1,0.7-0.1c0.8,0,1.1-0.3,1.2-1c0.1-0.6,0.4-1,0.8-1.3
		c0.4-0.3,1-0.4,1.7-0.2c0.2,0,0.3,0,0.5,0c0,0,0,0,0,0l-0.1,0c-1.7-0.6-3.4-1.2-5.2-1c0,0.2,0,0.4,0,0.7c0,0.5,0,1,0.5,1.3
		c0.1,0,0.1,0.1,0,0.2c0,0.1-0.1,0.1-0.2,0.1c-0.3-0.1-0.5-0.2-0.7-0.3c-0.2-0.1-0.4-0.2-0.6-0.3c-0.9-0.3-1.6-0.5-2.3-0.5
		c-1.3,0-2.2,0.7-2.8,2.2C25.5,15.6,25.6,15.9,26.7,16.7z"/>
	<path class="st0" d="M40.2,14c0,0,0.1,0.2,0.2,0.3c0.2,0.2,0.4,0.3,0.6,0.5c0.1,0.1,0.2,0.1,0.3,0.2c0.1,0,0.1,0.1,0,0.2
		c0,0.1-0.1,0.1-0.2,0.1c-2.1-0.6-4.3-0.2-5.1,0.9c0.1,0,0.1,0.1,0.2,0.1l0,0c0.4,0.2,1,0.5,0.9,1.1c0,0.1,0,0.1-0.1,0.2
		c-0.1,0.2-0.3,0.3-0.5,0.5c0.3,0.1,0.6,0.3,0.9,0.6c0.2-0.1,0.4-0.3,0.6-0.4c0.6-0.4,1.1-0.9,1.7-1.3c0.4-0.3,0.7-0.5,1.1-0.6
		c0.9-0.5,1.8-0.4,2.6,0.3c0.1,0.1,0.3,0.2,0.4,0.3c0.3,0.2,0.5,0.4,0.8,0.7c0,0,0,0.1,0,0.2c0,0.1-0.1,0.1-0.2,0.1
		c-0.1,0-0.2-0.1-0.4-0.1c-0.3-0.1-0.6-0.1-0.8-0.3c-0.8-0.6-1.7-0.6-2.6,0c-0.9,0.6-1.7,1.2-2.5,1.9c-0.7,0.6-0.8,2-0.2,2.8
		c0.1,0.1,0.2,0.3,0.2,0.5c0,0.1,0,0.1,0.1,0.2c0,0.1,0,0.2-0.1,0.2L38,23.1c0,0-0.1,0-0.1,0c0,0-0.1,0-0.1-0.1
		c0-0.1-0.1-0.1-0.1-0.2c-0.1-0.1-0.1-0.2-0.2-0.3c-0.8-0.7-1.1-1.4-0.7-2.4c0.1-0.3,0.1-0.7-0.1-0.9c-0.2-0.3-0.7-0.5-1.2-0.5
		c-0.3,0-0.5,0-0.8-0.1c-0.1,0-0.1,0-0.2,0c-0.1,0-0.1,0-0.2,0l-0.3,0c-1.7,0.2-2.6,1.6-2.6,2.8c0,0.7,0.1,1.5,0.2,2.2l0,0.2
		c0,0.3,0.2,0.7,0.7,0.8c0.4,0,0.5-0.2,0.6-0.7l0,0c0-0.1,0-0.2,0-0.3c0-0.1,0-0.2,0-0.2c0.1-0.7,0.4-1.1,0.9-1.3c0,0,0.1,0,0.1,0
		c0,0,0.1,0.1,0.1,0.1c0,0.2,0,0.3-0.1,0.5c0,0.4-0.1,0.8-0.1,1.2c-0.1,0.6-0.2,1.3-0.9,1.6c-0.6,0.3-1.1,0.2-1.7-0.3
		c-0.2,0.3-0.3,0.6-0.1,0.8c0.1,0.2,0.4,0.3,0.7,0.2c0.4,0,0.8-0.3,1.2-0.5c0.6-0.4,1.1-0.8,1.7-1.2c0.2-0.1,0.4-0.3,0.6-0.4
		c-0.6-1.1-0.6-2.1,0-3.1c0-0.1,0.1-0.1,0.2-0.1c0.1,0,0.1,0.1,0.1,0.1c0,0.2,0,0.5,0,0.7c0,0.3,0,0.6,0,0.8c0,0.3,0.2,0.8,0.5,1.1
		c0.6,0.7,1.5,1,2.3,0.9c0.9-0.1,1.7-0.7,2-1.5c0.1-0.2,0.2-0.5,0.3-0.7c0.1-0.2,0.1-0.5,0.2-0.7l0.1-0.1c0.2-0.5,0.4-0.9,0.7-1.3
		c0.2-0.3,0.5-0.4,0.8-0.5c0.4,0,0.9,0.1,1.3,0.5c0.7,0.5,0.8,1.2,0.3,1.9c-0.2,0.3-0.4,0.5-0.7,0.8c-0.1,0.1-0.2,0.2-0.3,0.3
		c0,0-0.1,0.1-0.2,0s-0.1-0.1-0.1-0.2c0.1-0.4,0.2-0.7,0.4-1c0.1-0.1,0.1-0.3,0.2-0.4c0.2-0.6-0.2-0.9-0.5-1
		c-0.2-0.1-0.3-0.1-0.4-0.1c-0.1,0-0.3,0.2-0.4,0.4c-0.2,0.4-0.4,0.8-0.5,1.3c-0.3,1-0.7,2.1-1.8,2.7c-0.3,0.2-0.6,0.3-0.9,0.4
		c0,0.1-0.1,0.1-0.1,0.2c0.2,0.4,0.4,0.6,0.6,0.7c0.2,0.1,0.6,0,1-0.2c0.4-0.2,0.8-0.5,1.2-0.8c0.2-0.1,0.4-0.3,0.5-0.4
		c0.1,0,0.1,0,0.2,0c0.1,0,0.1,0.1,0,0.2c-0.3,0.8-0.8,1.4-1.6,1.9c-0.9,0.5-2.1,0.2-2.8-0.7c-0.5-0.7-1.1-1.1-1.8-1.2
		c-0.6-0.1-1.3,0.1-1.9,0.6c-1.2,1-2.7,1.8-4.6,2.5c1.1,0.1,2.1,0.4,2.9,1c0.6,0.5,1.3,0.5,1.9,0.5c0.1,0,0.2-0.1,0.3-0.2
		c0,0,0,0,0.1,0c0,0,0,0,0-0.1c-0.1-0.1-0.2-0.2-0.2-0.3c-0.1-0.1-0.2-0.1-0.4-0.1c-0.1,0-0.2,0-0.3-0.1c-0.2-0.1-0.5-0.2-0.7-0.2
		l-0.3-0.1c-0.1,0-0.1-0.1-0.1-0.1l0-0.2c0,0,0-0.1,0.1-0.1c0,0,0.1,0,0.1,0c1.5,0.2,2.6-0.2,3.4-1.3c0,0,0.1-0.1,0.1-0.1
		c0,0,0.1,0,0.1,0l0.1,0.1c0.1,0,0.1,0.1,0,0.2L36,28.7c0,0,0,0,0,0c0.1,0.1,0.2,0.1,0.4,0.1c0.3,0.1,0.5,0.1,0.8,0.2
		c0.8,0.2,1.7,0.4,2.6,0.5c0.4,0,0.9-0.1,1.3-0.4c0.4-0.2,0.7-0.5,1-0.8c0.2-0.2,0.4-0.3,0.6-0.5c1.6-1.3,2.5-2.8,2.7-4.6
		c0.1-0.6,0.1-1.3,0.1-1.9c0-0.3,0-0.6,0-0.9c0-0.7,0.4-1.2,0.9-1.5c0,0,0.1,0,0.1,0c0,0,0.1,0.1,0.1,0.1c0,0.2-0.1,0.4-0.1,0.6
		c-0.1,0.4-0.2,0.8-0.2,1.1c0.2,1.7,0,3.4-0.7,4.9c-0.4,0.8-0.2,1.4,0.1,2c0.3,0.7,0.7,1.1,1.3,1.2c0.6,0.1,1.2-0.1,1.7-0.7
		c0.1-0.1,0.2-0.2,0.3-0.3c0.1-0.2,0.3-0.3,0.4-0.5c0.2-0.2,0.4-0.3,0.6-0.4c0.1-0.1,0.2-0.1,0.3-0.2c0,0,0.1,0,0.1,0
		c0,0,0.1,0,0.1,0.1l0.1,0.1c0,0.1,0,0.1,0,0.2c-0.4,0.3-0.4,0.6-0.2,1.1c0.2,0.8,0.2,1.6,0,2.5c-0.1,0.3-0.1,0.6,0,1
		c0.1,0.5,0.2,0.9-0.3,1.3c0,0-0.1,0-0.1,0c0,0-0.1,0-0.1-0.1l-0.2-0.6L48.4,34c0,0.1-0.1,0.1-0.2,0L48.1,34C48,34,48,33.9,48,33.8
		l0.2-0.5c0.2-0.4,0.3-0.8,0.5-1.1c0.1-0.2,0.2-0.5,0.3-0.7c0.2-0.5,0.4-0.9,0.6-1.4c0.1-0.3,0.1-0.6,0-0.9c0-0.1,0-0.1,0-0.2
		l-0.4,0.2c-0.5,0.3-0.9,0.6-1.4,0.9c0,0-0.1,0.1-0.1,0.2c0,0.1-0.1,0.1-0.1,0.2c-0.2,0.2-0.3,0.5-0.5,0.7L47,31.3
		c0,0.1-0.1,0.1-0.2,0l-0.2-0.1c-0.1,0-0.1-0.1-0.1-0.2c0,0,0-0.1,0-0.1c0-0.1,0.1-0.2,0.1-0.3c0.2-0.5,0.1-0.7-0.4-1
		c-0.6-0.3-1-0.8-1.2-1.1l-0.1-0.1c-0.3-0.4-0.4-0.6-0.6-0.7c-0.1,0-0.4,0.2-0.8,0.5c-0.1,0.1-0.1,0.1-0.2,0.1
		c-0.1,0.1-0.2,0.2-0.3,0.3l0,0c-0.2,0.3-0.5,0.7-0.6,1c-0.1,0.4-0.1,0.7-0.2,1.2c0,0.1,0,0.3,0,0.4c0,0,0,0,0,0
		c0.1,0,0.2,0.1,0.3,0.1l0.2,0c1.1,0.2,2.2,0.3,3.1,1c0,0,0.3,0,0.4-0.1c0.4-0.3,0.9-0.7,1.3-1c0.1-0.1,0.3-0.2,0.4-0.3
		c0,0,0.1,0,0.2,0c0.1,0,0.1,0.1,0.1,0.1c-0.2,0.9-0.8,1.5-1.5,2.1c0,0.1,0.1,0.3,0.1,0.4c0.1,0.3,0.1,0.6,0.2,0.9
		c0.2,0.8,0.6,1.2,1.3,1.1c1.4,0,2.4-0.7,3.1-2.2c0.3-0.6,0.4-1.2,0.2-1.8c-0.1-0.4,0-0.8,0-1.2c0-0.1,0-0.3,0.1-0.4
		c0-0.1,0.1-0.2,0.1-0.3c0-0.1,0.1-0.2,0.1-0.3c-0.1-1.7-0.4-3.4-1-5c-0.1-0.2-0.2-0.3-0.3-0.3c-0.1,0-0.2,0-0.3,0
		c-0.7,0.3-1.3,0.9-1.9,1.8c-0.4,0.6-0.6,1-0.3,1.6c0,0.1,0,0.2,0,0.2c0,0-0.1,0-0.2,0c0,0,0,0,0,0l-1.4-0.5c0,0-0.1-0.1-0.1-0.1
		c0,0,0-0.1,0-0.1c0,0,0,0,0-0.1c0-0.1,0.1-0.1,0.2-0.2c0.7-0.5,0.9-1,0.7-1.8c-0.2-1-0.1-1.7,0.4-2.3c0,0,0.1-0.1,0.2,0
		c0.1,0,0.1,0.1,0.1,0.1c0,0.2,0,0.3,0,0.5c0,0.4,0,0.7,0,1.1c0,0.1,0,0.2,0.1,0.2c0,0,0.1,0,0.3-0.1c0.1-0.1,0.2-0.2,0.4-0.4
		c0.1-0.1,0.2-0.2,0.4-0.4c0.4-0.4,0.9-0.6,1.4-0.6c0.5,0,0.9,0.3,1.3,0.8c0,0,0,0,0.1,0c0-0.1,0-0.2,0-0.2c0-1.3-1.2-3-2.5-3.5
		c-0.2-0.1-0.4-0.1-0.6-0.1c-0.2,0-0.3,0-0.3,0.1c0,0.1,0,0.2,0,0.2c0.2,0.3,0.4,0.7,0.8,1c0.2,0.2,0.4,0.3,0.6,0.4
		c0.1,0.1,0.2,0.1,0.3,0.2c0.1,0,0.1,0.1,0,0.2l-0.1,0.2c0,0.1-0.1,0.1-0.2,0.1c-0.2-0.1-0.4-0.2-0.6-0.2c-0.4-0.2-0.9-0.4-1.3-0.6
		c-0.5-0.3-0.7-0.9-0.6-1.6c0.2-0.7,0.7-0.8,1.3-0.8c0.1,0,0.2,0,0.2,0h0l0,0c-0.1-0.1-0.3-0.3-0.4-0.4c-0.4-0.4-0.8-0.8-1.2-1.2
		c-0.1-0.1-0.2-0.2-0.3-0.1c-0.1,0-0.1,0.1-0.2,0.3c-0.2,0.8-0.8,1.2-1.3,1.5c-1,0.5-1.9,0.6-2.9,0.3c-0.6-0.2-1.1,0-1.5,0.5
		l-0.1,0.1c-0.2,0.2-0.3,0.5-0.6,0.7c-0.2,0.1-0.4,0.2-0.6,0.3c-0.1,0-0.2,0.1-0.3,0.1c-0.1,0-0.1,0-0.2,0c0-0.1,0-0.1,0-0.2
		c0.1-0.2,0.3-0.4,0.4-0.6c0.3-0.4,0.6-0.8,0.8-1.2c0.5-0.8,1.1-1,2-0.8l0.2,0.1c0.3,0.1,0.5,0.1,0.8,0.2c0.8,0.1,1.7-0.3,2-1
		c0.1-0.3,0.2-0.5,0.2-0.7c0-0.4-0.3-0.8-0.8-1.2c-0.5-0.4-1.1-0.9-1.6-1.2c-0.2-0.1-0.4-0.2-0.6-0.3c-0.6-0.2-1.3-0.3-2-0.3
		c-0.2,0-0.4,0-0.6,0C40.4,13.8,40.2,13.9,40.2,14z"/>
	<path class="st0" d="M23,29.1c0.7,0.5,1.2,0.5,2.5-0.8c-0.2,0-0.4-0.1-0.6-0.1c-0.1,0-0.2,0.1-0.3,0.2c0,0-0.1,0.1-0.1,0.1l0,0.1
		c0,0.1,0,0.1-0.1,0.1c0,0-0.1,0-0.1,0c-0.7-0.3-1.3-0.2-1.8,0.3c-0.6,0.7-0.6,1.5,0.1,2.5c0,0,0,0.1,0,0.1c0,0,0,0.1-0.1,0.1
		l-0.1,0.1c0.2,0.1,0.3,0.1,0.4,0c0,0,0.1-0.1,0.1-0.4c0-0.2,0-0.3,0-0.5c0-0.2,0-0.4,0-0.6c0-0.2-0.1-0.5-0.1-0.7
		c0-0.1,0-0.2-0.1-0.4c0-0.1,0-0.1,0.1-0.1C22.9,29.1,23,29.1,23,29.1z"/>
	<path class="st0" d="M13.8,20C13.8,20,13.8,20,13.8,20c0.4-1.4,1.7-2,2.6-2.2c0.7-0.2,1.4-0.3,2-0.4l0.2,0c0.9-0.1,0.9-0.2,0.9-0.9
		c0-0.7,0.9-2.9,0.8-3l-0.1-0.2c0,0,0-0.1,0-0.1c0,0,0-0.1,0.1-0.1c0.1,0,0.2-0.1,0.4-0.1c0.3-0.1,0.6-0.2,0.9-0.3
		c0.2,0,0.5-0.1,0.7-0.1c0.2,0,0.5,0,0.7-0.1c0.5-0.1,1.1-0.2,1.6-0.3c0.4-0.1,0.7-0.2,0.5-0.3c-0.4-0.1-0.9-0.2-1.3-0.1
		c-1.5,0.2-2.8,0.7-3.9,1.5l-0.1,0c-0.3,0.3-0.7,0.5-1.2,0.6c-0.9,0.2-1.6,0.9-2.2,1.6c0.6-0.3,1.2-0.6,1.7-1
		c0.9-0.6,0.9,0.4,0.4,0.9c-0.2,0.2-0.5,0.4-0.8,0.6l0.8,0.6c0.1,0,0.1,0.1,0,0.2c0,0.1-0.1,0.1-0.2,0.1l-0.7-0.1
		c-0.3,0-0.5-0.1-0.8-0.1c-1.6,0-3,0.8-3.6,2.3c-0.1,0.3-0.2,0.5-0.1,0.7C13.3,19.8,13.5,19.9,13.8,20z"/>
	<path class="st0" d="M36.6,12.8c-0.6-0.1-1,0.1-1.2,0.6c-0.1,0.2-0.2,0.5-0.2,0.7l0,0.2c-0.2,0.6-0.5,0.9-1.1,0.9
		c-0.4,0-0.9,0.1-1.5,0.3c-0.2,0.1-0.4,0.2-0.4,0.3c-0.3,1.5-1.4,1.8-2.5,1.8c-0.8,0.1-1.4,0.4-1.8,0.9c-0.4,0.5-0.5,1.3-0.3,2
		c0.1,0.3,0.2,0.6,0.3,0.9c0.1,0.2,0.2,0.5,0.2,0.7l0,0c0.1,0.4,0.2,0.8,0.2,1.2c0,0.5,0,1-0.1,1.5c0,0.2,0,0.4,0,0.6
		c0,0.1,0,0.1-0.1,0.1c-0.1,0-0.1,0-0.2-0.1c-0.2-0.4-0.3-0.8-0.4-1.2c-0.1-0.3-0.1-0.6-0.1-0.8c0-0.3-0.1-0.7-0.1-1
		c0-0.1-0.2-0.3-0.3-0.4h0c-0.1,0-0.3,0.2-0.3,0.3c-0.5,0.9-0.6,2-0.3,3c0.1,0.3,0.2,0.6,0.3,0.9c0.1,0.2,0.1,0.3,0.2,0.5
		c0,0.1,0,0.1,0,0.2c0,0-0.1,0-0.2,0c-0.1-0.1-0.3-0.2-0.4-0.3c-0.2-0.2-0.5-0.4-0.6-0.3c-0.2,0-0.3,0.3-0.5,0.5
		c0,0.1-0.1,0.1-0.1,0.2c0.2,0,0.5,0.1,0.7,0.1c0.6,0.1,1.2,0.2,1.8,0.3c0.9,0.2,1.7,0.1,2.7-0.3c0.3-0.1,0.4-0.2,0.4-0.4
		c0-0.1,0-0.3-0.1-0.4c-0.4-0.5-0.3-1,0-1.5c0.5-0.8,0.4-1.8,0.2-2.6c-0.2-0.7-0.7-0.9-1.2-1.1c-0.6-0.2-0.7-0.5-0.8-0.8
		c0-0.2,0-0.6,0.5-1c0,0,0.1-0.1,0.2,0c0.1,0,0.1,0.1,0.1,0.2c-0.1,0.3-0.1,0.5,0,0.6c0.1,0.2,0.4,0.3,0.6,0.3
		c0.5,0.1,0.8,0.1,0.9-0.3c0.5-1.5,1.6-2.3,3.4-2.5c0.5-0.1,1-0.2,1.5-0.3c0.2,0,0.3-0.1,0.5-0.1C35.7,17,35.2,17,34.7,17
		c-0.3,0-0.6,0-0.9-0.1c-0.1,0-0.1-0.1-0.1-0.1c0-0.1,0-0.1,0.1-0.1c0.2-0.1,0.3-0.2,0.5-0.2c0.3-0.1,0.5-0.3,0.7-0.4
		c0.9-1.1,2-1.6,3.7-1.8c0.4,0,0.7-0.1,0.8-0.6c0-0.3,0.3-0.4,0.6-0.6c0,0,0.1-0.1,0.1-0.1c0.1-0.1,0.3-0.1,0.4-0.1c0,0,0.1,0,0.1,0
		l0,0l-0.4-0.1c-0.5-0.1-1.1-0.3-1.6-0.4c-0.1,0-0.2,0-0.2,0c-0.4,0.9-1.1,0.7-1.7,0.6L36.6,12.8z"/>
	<path class="st0" d="M35.8,43.2c0,0-1.2-0.5-2.9-1.9c0.1,0.2,0.2,0.4,0.3,0.5c0.3,0.3,0.6,0.6,0.9,0.8c1.2,1.2,2.4,2.4,3.2,3.9
		c0,0.1,0.2,0.1,0.4,0.2c0.1,0,0.2,0,0.3,0C38,45.2,37,43.6,35.8,43.2z"/>
	<path class="st0" d="M53.2,33.2c-0.1,0-0.5,0.2-0.9,0.7c-0.2,0.2-0.3,0.4-0.5,0.7c-0.2,0.3-0.4,0.6-0.6,0.8l0,0c-0.6,0.5-1,1-1,1.7
		c0,0.1-0.1,0.2-0.1,0.3c0,0-0.1,0.1-0.1,0.2c0,0.1-0.1,0.1-0.2,0.1c-0.1,0-0.1-0.1-0.1-0.1c-0.1-1.1-0.1-1.1-1-1.1l-0.1,0
		c-0.5,0-0.9-0.1-1.3-0.2c-0.2,0-0.4-0.1-0.5-0.1l-1.5,1c-0.1,0-0.1,0-0.2,0c0,0-0.1-0.1,0-0.2c0.2-0.3,0.4-0.6,0.6-0.8
		c0.1-0.2,0.2-0.3,0.4-0.5c0.6-0.9,0.5-2-0.3-2.5c-1.1-0.7-2.4-1-4.1-0.9c-0.6,0.1-1.8,0-2.4-0.9c0,0,0-0.1,0-0.2
		c0-0.1,0.1-0.1,0.2-0.1c0.1,0,0.2,0.1,0.3,0.1c0.2,0.1,0.4,0.1,0.6,0.2c0.8,0.2,1.3,0,1.5-0.8c0.1-0.2,0-0.3,0-0.4c0,0-0.2,0-0.3,0
		c-0.7,0.4-1.4,0.2-2.1,0.1c-0.5-0.1-1.2-0.3-1.9-0.2c-0.7,0.1-1.4,0.3-2.1,0.4c-0.2,0.1-0.5,0.1-0.7,0.2c0,0.1,0.1,0.2,0.1,0.3
		c0.3,0.7,0.5,0.8,1.1,0.6c0.8-0.3,1.5-0.2,2.4,0.3l0.3,0.2c1.6,1,3.2,2,5.2,2c0.1,0,0.1,0,0.1,0.1c0,0.1,0,0.1-0.1,0.2l-0.8,0.4
		l-0.1,0.8c0,0.1,0,0.1-0.1,0.1c-0.1,0-0.1,0-0.1,0c-0.1-0.1-0.3-0.3-0.4-0.4c-0.2-0.3-0.4-0.5-0.7-0.6c-0.7-0.4-1.4-0.7-2.1-1
		c-0.6-0.3-1.2-0.6-1.8-0.9c-1.1-0.6-2.3-0.3-2.9,0.8c-0.7,1.2-1.6,1.5-2.8,0.8c-0.3-0.2-0.7-0.3-1-0.5c-0.1-0.1-0.2-0.1-0.3-0.2
		c0,0-0.1-0.1-0.1-0.1c0,0,0-0.1,0-0.1l0.9-1.3c0,0,0.1-0.1,0.1-0.1c0.1,0,0.1,0,0.1,0.1c0,0,0,0.1,0,0.1c0,0.1,0.1,0.3,0.1,0.4
		c0,0.1,0,0.2,0,0.2c0.1,0.5,0.5,0.6,0.9,0.7l0.1,0c0.4,0.1,0.7,0,0.9-0.5c0.1-0.2,0.2-0.6,0.3-0.9c0.1-1.4-1-2.6-2.5-3
		c-2-0.5-2.5,0.1-3.1,1.2c-0.2,0.3-0.4,0.6-0.6,0.8c-0.1,0.1-0.2,0.2-0.3,0.3c0,0-0.1,0-0.1,0c0,0-0.1,0-0.1,0l-0.1-0.1
		c0,0-0.1-0.1,0-0.2l1.2-2.6c-0.2,0-0.5-0.1-0.7-0.1c-0.5-0.1-0.9-0.2-1.4-0.2c-0.2,0.9-0.6,1.4-1.3,1.7c-0.5,0.2-0.8,0.5-0.8,1
		c0,0.9,0,1.9,0.2,2.9c0.1,0.8,0.8,1.4,1.4,1.8c0.4,0.3,0.7,0.5,1,0.9c0,0.1,0,0.1,0,0.2c0,0-0.1,0.1-0.1,0.1c0,0,0,0-0.1,0
		l-0.3-0.1c-0.9-0.4-1.7-0.7-2.7-0.3c-0.1,0-0.1,0-0.2-0.1c0-0.1,0-0.1,0-0.2c0.6-0.6,0.4-1,0.1-1.7c-0.1-0.2-0.2-0.5-0.2-0.7
		c0-0.1,0-0.2-0.1-0.3c-0.4-1.3-0.7-1.5-2-1.4c-0.1,0-0.1,0-0.1-0.1c0-0.1,0-0.1,0-0.2c0.4-0.3,0.8-0.5,1.3-0.4l-1-1.2
		c-0.4,0.3-0.6,0.8-0.7,1.2c-0.2,1,0,2.4,0.6,3.1c1.1-0.2,1.6,0,2.1,0.9c0,0.1,0,0.1,0,0.2c0,0-0.1,0.1-0.2,0l-0.1,0
		c-0.1,0-0.1,0-0.1-0.1c-0.1,0-0.2-0.1-0.3-0.1c-0.2-0.1-0.3-0.1-0.5-0.1c-0.1,0-0.2,0.1-0.3,0.2c-0.3,0.4-0.1,0.7,0.3,1.2l0,0
		c0.1,0.1,0.1,0.2,0.2,0.2c1.3,1.2,2.7,1.9,4.2,2.2c1.6,0.3,2.3-0.1,2.8-1.6c0.2-0.5,0.3-1.1,0.1-1.2c-0.2-0.2-0.7-0.2-1.2-0.1
		c-0.4,0-0.9,0-1.2-0.6c0-0.1,0-0.1,0-0.2c0,0,0.1-0.1,0.2,0c0.4,0.2,0.8,0.1,1.3,0c0.5-0.1,1.1-0.2,1.6,0.1c0-0.5-0.3-0.8-0.7-1.1
		c-1.1-0.7-2.1-0.7-3.1,0c0,0-0.1,0-0.2,0c-0.1,0-0.1-0.1-0.1-0.2c0.3-1,0.6-1.2,2.1-1.5l0-0.1c0-0.1,0.1-0.2,0.1-0.3
		c0.3-0.7,0.7-1.7,2.1-1.6c0.2,0,0.5,0,0.7-0.1c0.1,0,0.3-0.1,0.4-0.1c0.1,0,0.1,0,0.1,0.1c0,0,0,0.1,0,0.1
		c-0.3,0.6-0.8,0.7-1.2,0.8c-0.1,0-0.1,0-0.2,0c-0.7,0.2-0.9,0.7-1,1.2c-0.1,0.5,0.2,0.7,0.6,1c0.2,0.2,0.5,0.3,0.8,0.4l0.1,0.1
		c0.2,0.1,0.5,0.2,0.7,0.3c0.4,0.2,0.9,0.4,1.3,0.6c0.9,0.5,1,0.5,1.8-0.2c0.2-0.2,0.4-0.3,0.6-0.4c0.1,0,0.1-0.1,0.2-0.1
		c0,0,0.1,0,0.1,0c0,0,0.1,0.1,0.1,0.1c0,0.1,0,0.3,0,0.4c0,0.2,0,0.4,0,0.5c0.1,0.1,0.5,0.2,0.8,0.1c0.2,0,0.3-0.2,0.5-0.3
		c0.1-0.1,0.1-0.1,0.2-0.1c0.2-0.1,0.4-0.3,0.5-0.4l0.1-0.1c0.1,0,0.1,0,0.2,0c0.2,0.2,0.4,0.3,0.5,0.5c0.3,0.3,0.7,0.7,1.1,0.8
		c0.4,0.2,0.9,0.2,1.4,0.3c0.2,0,0.4,0,0.6,0.1c0.1,0,0.1,0.1,0.1,0.1c0,0.1,0,0.1-0.1,0.2c-1.4,0.8-2.6,0.6-3.5-0.6
		c0,0-0.1,0-0.1-0.1l-0.1,0c-0.3,0.1-0.7,0.2-0.9,0.4c0,0.1,0,0.2,0.1,0.3c0,0.1,0.1,0.2,0.1,0.3c0,0.1,0,0.1,0,0.1c0,0-0.1,0-0.1,0
		c0,0-0.1,0-0.1,0c-0.1,0-0.3-0.1-0.5-0.2c-0.4-0.2-0.7-0.5-1-0.7c-0.3-0.2-0.5-0.3-0.9-0.1c-0.4,0.2-1,0.1-1.5,0.1
		c-0.2,0-0.4-0.2-0.6-0.3c-0.1,0-0.1-0.1-0.2-0.1c-0.2-0.1-0.4-0.2-0.6-0.2c-0.2,0-0.4,0.1-0.5,0.3c-0.4,0.6-0.7,1.3-0.9,2
		c0,0.2-0.1,0.4,0,0.5c0.1,0.1,0.3,0.1,0.6,0.1c0.7-0.1,1.4-0.4,2.1-0.6l0.1,0c0.3-0.1,0.4-0.2,0.5-0.3c0-0.1,0-0.3-0.1-0.6
		c0-0.1,0-0.1,0-0.2c0,0,0.1-0.1,0.2,0c1.7,0.8,3.3,1.5,4.9,0.7c0,0,0.1,0,0.1,0c0.1,0,0.3,0.1,0.4,0.1c0.2,0.1,0.3,0.1,0.5,0.1
		c0.4,0,0.8,0,1.1-0.1c1.1-0.2,2.1-0.6,3-1.3c0.1-0.1,0.2-0.2,0.3-0.2l0.2-0.1c0,0,0.1,0,0.1,0c0,0,0.1,0.1,0.1,0.1
		c0,0.3,0,0.5-0.2,0.6c-0.1,0.1-0.2,0.3-0.2,0.4c0,0.1,0.2,0.2,0.4,0.3c0.5,0.2,1,0.3,1.4,0.4c0.9,0.1,1.9-0.2,3-0.9
		c0,0,0.1,0,0.1,0c0,0,0.1,0.1,0.1,0.1c0.1,0.7,1.1,1.9,2.1,1.4c0.8-0.4,1-0.9,0.5-1.8c0-0.1,0-0.1,0-0.2c0,0,0.1-0.1,0.2,0l1-0.8
		c0,0,0-0.1,0.1-0.1c0.1-0.1,0.2-0.1,0.3-0.2c0.2-0.1,0.3-0.1,0.3-0.2c0.2-0.4,0.3-0.8,0.4-1.2C53.5,33.8,53.6,33.3,53.2,33.2z"/>
	<path class="st0" d="M32,0C14.3,0,0,14.3,0,32c0,17.7,14.3,32,32,32s32-14.3,32-32C64,14.3,49.7,0,32,0z M54.1,34.6
		c-0.2,1.5-1,3-2.5,4.6c-1,1-2.3,1-3.2,0.9l0,0c0,0.1-0.1,0.1-0.1,0.2c-0.9,2.3-2.6,3.6-5.1,3.7c-1.1,0.1-2.2,0-3.3,0
		c-0.5,0-1,0-1.5-0.1c-0.1,0-0.2,0-0.3,0c0.1,0.2,0.1,0.3,0.2,0.5c0.2,0.5,0.4,1.1,0.6,1.6c0.1,0.4,0.3,1.1-0.3,1.5
		c0.4,2.5-1,4.8-3.3,5.8c-2.7,1.2-6,0.7-8.6-0.5c-5.8-2.8-6-10.7-11.7-13.4c0,0,0,0-0.1,0c-1.1-0.1-2.3,0.1-3.3,0.5
		c-0.5,0.2-0.9,0.6-1.4,0.7c-0.9,0.2-1.9-0.2-2.5-0.8c-0.4-0.5,0.3-1.2,0.7-0.7c0.9,0.9,1.8,0.5,2.7,0c-0.7-0.2-1.3-0.7-1.7-1.5
		c-0.3-0.6,0.6-1.1,0.9-0.5c0.6,1.1,1.8,1.3,3,1.3c-0.2-0.1-0.4-0.3-0.6-0.4c-0.9-0.7-2.1-2-3.3-2.1c-0.6-0.1-0.6-1.1,0-1
		c2,0.2,3.2,2.1,4.9,2.9c0.1,0,0.2,0.1,0.3,0.1c-0.1-0.2-0.1-0.4-0.2-0.7c-0.1-0.9,0-1.6-0.5-2.3c-0.4-0.5,0.5-1,0.9-0.5
		c0.7,1,0.4,2.4,0.9,3.4c0.1,0,0.2,0,0.3,0.1c4.4,2.1,5.6,7,8.3,10.6c1.7,2.3,4.3,3.6,7.2,3.8c2.6,0.2,6.2-1.2,5.5-4.5
		c0-0.1,0-0.3,0-0.4c-0.1-0.1-0.1-0.2-0.2-0.3c-0.8-1.5-1.9-2.6-3.1-3.7c-0.4-0.4-0.8-0.8-1.2-1.2c-0.3-0.4-0.6-0.9-0.8-1.6
		c-0.2-0.7-0.5-0.9-1.1-0.7c-0.3,0.1-0.7,0.1-1,0.2c-0.5,0.1-1,0.2-1.6,0.3c-1.6,0.3-3.1-0.1-4.7-1.1c-1-0.6-1.9-1.3-2.4-2.2
		l-0.1-0.1c-0.7-1.4-1.5-2.9-1.4-4.6c0,0,0,0,0,0c-2.2-0.1-4.6-0.5-6.4-2.5c-0.9-1-1.2-2.2-1.4-3.3c0-0.3-0.1-0.7-0.2-1
		C11,24.2,11,22.7,11.6,21c0.3-0.9,0.6-1.7,0.9-2.4c0.2-0.5,0.6-1,1.1-1.5c0.6-0.7,1.3-1.4,2.1-2.1l0.2-0.2c0.4-0.4,1.1-0.9,1.6-1.2
		c0.2-0.1,0.4-0.2,0.6-0.4c1.5-0.9,3.1-1.8,4.8-2.2c1.4-0.3,2.9-0.6,4.4-0.7c1.7-0.2,3.5-0.2,5.3-0.3c1.8-0.1,3.4,0.5,5,1.1
		c0.3,0.1,0.5,0.1,0.8,0.2c0.2,0,0.4,0.1,0.6,0.1c0.1,0,0.3,0.1,0.4,0.1c0.5,0.1,1.2,0.4,1.7,0.6c0.5,0.3,1,0.5,1.5,0.8
		c1.4,0.7,2.9,1.5,4,2.7c0.4,0.4,0.8,0.7,1.2,1c0.6,0.4,1.1,0.9,1.6,1.4c0.5,0.6,0.9,1.2,1.4,1.8c0.3,0.4,0.7,0.9,1,1.3
		c0.3,0.4,0.5,1,0.7,1.5c0.1,0.2,0.2,0.4,0.3,0.7c0,0.1,0,0.1,0.1,0.2c0,0.1,0,0.1,0,0.2c0.8,1.2,1.3,2.7,1.4,4.3l0,0.4
		C54.2,30.4,54.3,32.5,54.1,34.6z"/>
	<path class="st0" d="M13.6,20.4L13.6,20.4c-0.3,0.1-0.4,0.2-0.5,0.2c-0.1,0-0.1,0-0.2,0c0,0-0.1,0-0.1,0c-0.4,1-0.6,1.9-0.6,2.8
		c0,0,0,0,0,0l0,0c0.2-0.3,0.3-0.7,0.4-1C12.7,21.6,12.9,20.9,13.6,20.4z"/>
	<path class="st0" d="M20.8,29.5l0.2-0.2c0.7-0.8-1.3-3.1-1.3-3.1c-0.1,0-0.1-0.1-0.1-0.1c0-0.1,0-0.1,0.1-0.1
		c0.7-0.2,1.1-0.5,1.1-1.2c0-0.1,0.1-0.1,0.1-0.1c0.1,0,0.1,0.1,0.1,0.1c0.1,0.7,0.5,1.2,1.2,1.5l0.1,0c0.3,0.1,0.6,0.2,0.9,0.3
		c0.3,0.1,0.5-0.3,0.4-0.5l-0.2-0.3c0,0,0-0.1,0-0.2c0,0,0.1-0.1,0.2-0.1c0.1,0,0.3,0.1,0.4,0.1c0.2,0.1,0.4,0.1,0.6,0.1
		c0.2-0.1,0.5-0.3,0.6-0.5c0.1-0.6,0.1-1.2,0.1-1.8l0-0.1c0-0.3-0.2-0.5-0.5-0.5h-1.8c-0.1,0-0.3,0.1-0.3,0.2
		c-0.1,0.1-0.1,0.3,0,0.4l0.2,0.4c0,0.1,0,0.1-0.1,0.2l-0.2,0.1c-0.1,0-0.2,0-0.2,0c-0.4-0.7-1.1-0.8-2.1-0.6
		c-0.9,0.2-1.7,0.8-2.6,1.7c-0.2,0.3-0.3,0.6-0.3,0.9c0,0.3,0.2,0.6,0.5,0.7c0.3,0.2,0.7,0.3,1,0.4c0.1,0,0.2,0.1,0.3,0.1
		c0.7,0.3,1.2,0.6,1.5,1.1c0,0.1,0,0.1,0,0.2c0,0-0.1,0.1-0.2,0c-0.2-0.1-0.4-0.1-0.6-0.2c-0.4-0.2-0.8-0.3-1.2-0.4
		c-1.8-0.4-2.2-0.9-2.3-2.6c-0.2,0-0.4-0.1-0.5-0.1c-0.5-0.1-1-0.2-1.4-0.4c-0.5-0.2-0.8-0.5-0.9-0.9c-0.1-0.4,0-0.8,0.3-1.2
		c0.5-0.7,1-1.3,1.7-1.6c0.3-0.1,0.6-0.2,0.8-0.3c0.8-0.3,1.5-0.6,2.1-1.1c0.1-0.1,0.1,0,0.2,0c0,0,0,0,0.1,0c0,0,0.1,0,0.1,0.1
		s0,0.1,0,0.1c-0.7,0.9-1.4,1.3-2.2,1.6c-0.8,0.2-1.4,0.7-1.8,1.5c-0.2,0.3-0.2,0.5-0.1,0.6c0.1,0.2,0.2,0.3,0.5,0.4
		c0.2,0.1,0.5,0.1,0.8,0.2c0.2,0,0.4,0.1,0.6,0.1c0.4,0.1,0.6,0,1-0.3c1.2-0.9,2.3-1.5,3.3-2c0.5-0.2,1-0.3,1.5-0.3l0.2,0
		c0.4,0,0.9,0,1.3,0c0.5,0,1.1,0,1.6,0c0.4,0,0.7-0.2,0.9-0.4c0.2-0.2,0.3-0.6,0.2-1.1c0-0.3-0.1-0.6,0.1-1c0.4-1,0.2-1.8-0.8-2.3
		c-0.8-0.5-1-1.2-0.7-2.2c0.1-0.4,0.3-0.9,0.5-1.3c0.1-0.1,0.1-0.3,0.2-0.4c-0.3,0-0.5,0.1-0.8,0.1c-0.8,0.1-1.6,0.2-2.3,0.6l0,0.1
		l1.9,0.6c0.1,0,0.1,0.1,0.1,0.1c0,0.1,0,0.1-0.1,0.1c-0.1,0-0.1,0-0.2,0c-0.1,0-0.3,0.1-0.4,0.1c-0.2,0.1-0.5,0.1-0.7,0.2
		c-0.7,0.2-1.3,0.4-2,0.6c-0.4,0.2-0.7,0.5-0.6,0.9c0,0.4,0.3,0.6,0.8,0.8c0.2,0.1,0.5,0.1,0.7,0.2l0.3,0.1c0.3,0.1,0.5,0.1,0.8,0.2
		c0.4,0.1,0.9,0.2,1.3,0.3c0.4,0.1,1.1,0.3,1.1,1.2c0,0.5-0.3,0.9-0.8,1.2c-0.5,0.2-1,0.4-1.6,0.5c-0.3,0.1-0.6,0.1-1,0.1
		c-0.4,0-0.8,0-1.2,0.1c-0.5,0.1-1.1,0.4-1.6,0.6c-0.2,0.1-0.4,0.2-0.7,0.3c-0.1,0-0.1,0-0.2,0c0-0.1,0-0.1,0-0.2
		c0.8-1,1.9-1.5,3.3-1.7l0.2,0c0.6-0.1,1.2-0.1,1.7-0.3c0.2-0.1,0.3-0.3,0.5-0.5c0-0.1,0.1-0.1,0.1-0.2c0,0-0.1-0.1-0.1-0.1
		c-0.2-0.1-0.3-0.3-0.5-0.3c-1.2-0.2-2.3-0.4-3.5-0.5c-0.3,0-0.6,0-0.9,0c-1.2,0-2.3,0.2-3.3,0.6c-0.4,0.2-0.7,0.5-1,0.9
		c0,0,0.1,0.3,0.2,0.4c0.1,0.1,0.1,0.2,0.2,0.3c0,0,0,0.1,0,0.1c0,0-0.1,0.1-0.1,0.1c-1.1,0.1-1.6,0.5-1.8,1.4
		c-0.1,0.5-0.3,0.9-0.5,1.4c-0.6,1.4-0.7,3-0.1,4.3c0.5,1.2,1.4,2.1,2.5,2.6c0.7,0.3,1.4,0.5,2.3,0.7c0.5,0.1,1,0.2,1.5-0.1
		c-1-0.6-2-0.9-3.4-0.9c-0.1,0-0.1,0-0.1-0.1c0-0.1,0-0.1,0.1-0.2l0.7-0.3l0,0L16,29.4c-0.4-0.1-0.8-0.3-1.2-0.5
		c-1.2-0.5-1.6-1.1-1.7-2.3c0-0.1,0-0.1,0.1-0.1c0.1,0,0.1,0,0.2,0.1c0.4,0.6,0.8,1.2,1.5,1.4l-0.5-1.4c0-0.1,0-0.1,0.1-0.2
		c0.1,0,0.1,0,0.2,0c1,1.5,2.4,2.6,4.2,3.4C19.9,30.4,20,30.3,20.8,29.5z"/>
	<path class="st0" d="M42.6,40.9c-1.9-0.4-3.8-0.5-5.7-0.6c-1.7-0.2-3.1-0.4-3.8-0.4l0.1,0.1c0.3,0.3,0.7,0.5,1,0.8
		c0.2,0.1,2.8,2.1,4.2,2.4c1.9,0.4,4.5,0.9,6.3-0.3C46.4,41.8,43.3,41.1,42.6,40.9z"/>
</g>
</svg>
